# xmcd CD database file
#
# Track frame offsets:
#	150
#	17019
#	36154
#	62628
#	88078
#	109346
#	132286
#	152030
#	179957
#	199018
#	227745
#
# Disc length: 3098 seconds
#
# Revision: 0
# Processed by: cddbd v1.5.2PL0 Copyright (c) Steve Scherf et al.
# Submitted via: Feurio! 1.65 - http://www.feurio.com
#
DISCID=970c180b
DTITLE=HERBERT - SCALE          
DYEAR=2006
DGENRE=
TTITLE0=something isn't right
TTITLE1=the movers and the shakers
TTITLE2=moving like a train
TTITLE3=harmonise
TTITLE4=we're in love
TTITLE5=birds of a feather
TTITLE6=those feelings
TTITLE7=down 
TTITLE8=movie star
TTITLE9=just once
TTITLE10=wrong 
EXTD=
EXTT0=
EXTT1=
EXTT2=
EXTT3=
EXTT4=
EXTT5=
EXTT6=
EXTT7=
EXTT8=
EXTT9=
EXTT10=
PLAYORDER=
